<?xml version="1.0" standalone="no"?>
<!DOCTYPE svg PUBLIC "-//W3C//DTD SVG 20010904//EN"
 "http://www.w3.org/TR/2001/REC-SVG-20010904/DTD/svg10.dtd">
<svg version="1.0" xmlns="http://www.w3.org/2000/svg"
 width="840.000000pt" height="572.000000pt" viewBox="0 0 840.000000 572.000000"
 preserveAspectRatio="xMidYMid meet">

<g transform="translate(0.000000,572.000000) scale(0.100000,-0.100000)"
fill="#000000" stroke="none">
<path d="M3785 3657 c-231 -385 -430 -717 -443 -738 l-22 -38 442 -265 443
-266 3 506 c1 278 1 729 0 1003 l-3 498 -420 -700z"/>
<path d="M4240 3356 c0 -554 3 -1005 8 -1003 71 40 861 513 869 521 10 9 -86
177 -428 746 -243 404 -443 737 -445 739 -2 2 -4 -449 -4 -1003z"/>
<path d="M3364 2715 c47 -73 838 -1205 842 -1205 2 0 4 161 4 358 l0 357 -392
235 c-215 129 -410 246 -432 260 l-41 24 19 -29z"/>
<path d="M4683 2482 l-433 -257 0 -360 c0 -310 2 -357 14 -345 22 23 858 1212
854 1215 -2 2 -198 -112 -435 -253z"/>
</g>
</svg>
