<svg width="223" height="73" viewBox="0 0 223 73" fill="none" xmlns="http://www.w3.org/2000/svg">
<path d="M82.528 33.664L80.544 33.6L78.688 25.92C76.2133 25.4933 74.3573 25.28 73.12 25.28C70.688 25.28 67.9573 25.7707 64.928 26.752C64.032 28.416 63.328 30.5493 62.816 33.152C62.304 35.7547 62.048 38.208 62.048 40.512C62.048 52.288 65.44 58.176 72.224 58.176C75.1253 58.176 77.4293 57.7493 79.136 56.896L80.48 49.088C83.168 49.088 85.216 49.2373 86.624 49.536C87.3067 54.1867 87.648 57.9627 87.648 60.864C86.624 61.632 84.5547 62.4853 81.44 63.424C78.368 64.3627 75.3387 64.832 72.352 64.832C59.6373 64.832 53.28 56.9813 53.28 41.28C53.28 33.8133 54.816 28.1387 57.888 24.256C61.0027 20.3733 65.952 18.432 72.736 18.432C76.1067 18.432 79.0933 18.9227 81.696 19.904C84 20.7573 85.9627 21.696 87.584 22.72C87.584 25.6213 87.264 29.12 86.624 33.216C85.4293 33.5147 84.064 33.664 82.528 33.664ZM123.029 19.904L123.093 20.544C123.093 22.2933 122.815 23.7867 122.261 25.024C121.706 25.4507 120.831 25.792 119.637 26.048L130.325 57.664L136.405 58.432C136.405 60.1813 135.914 62.0373 134.933 64H119.381L118.805 60.48C120.597 59.7973 121.77 59.3493 122.325 59.136L119.765 51.904H105.365C104.085 55.7013 103.402 57.6853 103.317 57.856L107.733 58.432C107.733 59.328 107.562 60.3733 107.221 61.568C106.879 62.72 106.559 63.5307 106.26 64H90.7085L90.1325 60.48C92.0525 59.6693 93.7805 59.072 95.3165 58.688L106.069 25.792C103.21 25.3653 101.055 24.8107 99.6045 24.128C99.6045 22.8907 99.7965 21.8027 100.181 20.864C101.077 20.5653 103.167 20.224 106.453 19.84C109.781 19.4133 112.938 19.2 115.925 19.2C118.954 19.2 121.322 19.4347 123.029 19.904ZM114.773 37.504L112.917 29.056H112.277L110.229 37.888L107.221 45.888H117.909L114.773 37.504ZM134.617 30.848C133.934 27.904 133.593 25.5787 133.593 23.872C133.593 22.1653 133.657 20.608 133.785 19.2H170.969C171.139 21.248 171.225 22.6347 171.225 23.36C171.225 25.1947 170.883 27.6907 170.201 30.848C168.963 31.1893 166.937 31.36 164.121 31.36L162.649 24.896H157.209C157.166 26.5173 156.974 37.504 156.633 57.856L161.241 58.432C161.241 60.3947 160.75 62.2507 159.769 64H144.217L143.641 60.48C146.585 59.3707 148.441 58.752 149.208 58.624C149.208 58.4533 148.953 47.232 148.441 24.96H142.105L140.697 31.232C138.179 31.232 136.153 31.104 134.617 30.848Z" fill="black"/>
<path d="M47.1728 32.1292C35.4522 28.5406 10.6616 21.8417 5.26365 23.7553" stroke="black" stroke-width="2" stroke-linecap="round"/>
<path d="M46 41.6626C31.1667 41.1626 1.4 40.4626 1 41.6626" stroke="black" stroke-width="2" stroke-linecap="round"/>
<path d="M47.5343 49.9771C38.1051 53.6296 19.2906 61.1297 19.4657 61.9103" stroke="black" stroke-width="2" stroke-linecap="round"/>
<path d="M175.565 32.0647C187.286 28.4761 212.077 21.7772 217.475 23.6908" stroke="black" stroke-width="2" stroke-linecap="round"/>
<path d="M176.738 41.5981C191.572 41.0981 221.338 40.3981 221.738 41.5981" stroke="black" stroke-width="2" stroke-linecap="round"/>
<path d="M175.204 49.9126C184.633 53.5651 203.448 61.0652 203.273 61.8458" stroke="black" stroke-width="2" stroke-linecap="round"/>
</svg>
